<svg id="Capa_1" data-name="Capa 1" xmlns="http://www.w3.org/2000/svg" viewBox="0 0 368.64 468.29"><defs><style>.cls-1{fill:#3a556a;}.cls-2{fill:#e56353;}.cls-3{fill:#e1e6e9;}.cls-4{fill:#d15241;}.cls-5{fill:#44c4a1;}.cls-6{fill:#31978c;}</style></defs><path class="cls-1" d="M239.42,142.4c-1.74-22.21,39.49-57.13,59.31-72.56a14.69,14.69,0,0,0,3.59-19.11h0a14.69,14.69,0,0,0-23.94-1.9c-16.1,19.6-45,55.9-48.31,93.57Z" transform="translate(-49.83)"/><path class="cls-2" d="M302.41,133.71a81.39,81.39,0,0,0-18.74,2.18,216.61,216.61,0,0,1-99.05,0,81.39,81.39,0,0,0-18.74-2.18c-64.09,0-116,74.9-116,167.29s52,167.29,116.05,167.29a84.14,84.14,0,0,0,36.83-8.62,70.77,70.77,0,0,1,62.87,0,84.14,84.14,0,0,0,36.83,8.62c64.1,0,116-74.89,116-167.29S366.51,133.71,302.41,133.71Z" transform="translate(-49.83)"/><path class="cls-3" d="M132.19,190.18C109,208.53,76.84,244.52,88.7,297.57c1.57,7,10.87,9,14.92,3.07,3.57-5.26,7.22-14.26,9.93-29.6a7.78,7.78,0,0,1,.37-1.38,71.85,71.85,0,0,1,38.58-38.87c5.62-2.34,7.13-9.72,2.53-13.71-5.25-4.55-9.67-11.12-9.23-20.22C146.14,189.87,137.68,185.85,132.19,190.18Z" transform="translate(-49.83)"/><path class="cls-4" d="M389.59,196.84c11.81,26.19,18.69,57.43,18.69,91,0,92.39-52,167.29-116,167.29a84.14,84.14,0,0,1-36.83-8.62,70.7,70.7,0,0,0-62.87,0,84.14,84.14,0,0,1-36.83,8.62c-36.77,0-69.51-24.67-90.78-63.13,20.69,45.91,56.56,76.29,97.36,76.29a84.22,84.22,0,0,0,36.84-8.62,70.75,70.75,0,0,1,62.86,0,84.17,84.17,0,0,0,36.83,8.62c64.1,0,116.06-74.9,116.06-167.29C414.87,261.61,405.4,225.42,389.59,196.84Z" transform="translate(-49.83)"/><path class="cls-5" d="M146.21,0h0a105.46,105.46,0,0,0,90.18,118.79h0A105.46,105.46,0,0,0,146.21,0Z" transform="translate(-49.83)"/><path class="cls-6" d="M224.52,98.89l-8.79-11.58L219.81,75a1.8,1.8,0,0,0-3.42-1.12l-3.3,10-7.16-9.43L210,62.08A1.8,1.8,0,0,0,206.58,61l-3.29,10-7.16-9.43,4.07-12.32A1.8,1.8,0,1,0,196.78,48l-3.3,10-7.16-9.43,4.08-12.32A1.8,1.8,0,1,0,187,35.13l-3.3,10-7.16-9.44,4.07-12.31a1.8,1.8,0,1,0-3.42-1.13l-3.29,10L162.26,16.89A2.57,2.57,0,0,0,158.17,20L170,35.64l-11.24.53a1.8,1.8,0,1,0,.17,3.59l13.71-.64,7.16,9.43-11.24.53a1.8,1.8,0,1,0,.17,3.6L182.48,52l7.16,9.43L178.4,62a1.8,1.8,0,0,0,.17,3.6l13.72-.65,7.16,9.44-11.24.53a1.8,1.8,0,1,0,.17,3.59l13.71-.64,7.16,9.43L198,87.82a1.8,1.8,0,0,0,.17,3.59l13.72-.64L220.43,102a2.57,2.57,0,1,0,4.09-3.12Z" transform="translate(-49.83)"/></svg>