<svg id="Capa_1" data-name="Capa 1" xmlns="http://www.w3.org/2000/svg" viewBox="0 0 291.62 468.29"><defs><style>.cls-1{fill:#3a556a;}.cls-2{fill:#e56353;}.cls-3{fill:#e1e6e9;}.cls-4{fill:#44c4a1;}.cls-5{fill:#31978c;}</style></defs><path class="cls-1" d="M239.42,142.4c-1.74-22.21,39.49-57.13,59.31-72.56a14.69,14.69,0,0,0,3.59-19.11h0a14.69,14.69,0,0,0-23.94-1.9c-16.1,19.6-45,55.9-48.31,93.57Z" transform="translate(-49.83)"/><path class="cls-2" d="M260.91,420.53c-1.84-9.14-.11-17.88,4-26.13,4-7.9,9.7-14.92,12.56-23.36,3.15-9.29,1.67-18.79,2-28.38.35-9.92,3.12-17.81,10.39-24.69,6.68-6.32,7.5-13.8,10.21-22.19a38.2,38.2,0,0,1,17.76-21.26c7.18-4.14,16.42-7.46,17.76-16.7.56-3.9.33-7.83,2.06-11.49a14.89,14.89,0,0,1,1.93-3,19.19,19.19,0,0,0-.91-8.36c-1.31-3.36-3.9-6-6.46-8.47-6-5.69-11.33-10.86-14-18.95-4.51-13.85,6.59-21.13,15.14-29.66,4.89-4.88,9.86-11.48,7.35-18.73-2.8-8.07-11.44-12.91-19.11-15.31-4-1.26-4.27-5.85-2.22-8.31a81.79,81.79,0,0,0-35.78.37,216.34,216.34,0,0,1-99.05,0,81.93,81.93,0,0,0-18.74-2.17c-64.09,0-116,74.9-116,167.29s52,167.29,116.05,167.29a84.14,84.14,0,0,0,36.83-8.62,70.77,70.77,0,0,1,62.87,0,85.86,85.86,0,0,0,24.78,7.73C275.68,456.3,264.38,437.73,260.91,420.53Z" transform="translate(-49.83)"/><path class="cls-3" d="M132.19,190.18C109,208.53,76.84,244.52,88.7,297.57c1.57,7,10.87,9,14.92,3.07,3.57-5.26,7.22-14.26,9.93-29.6a7.78,7.78,0,0,1,.37-1.38,71.85,71.85,0,0,1,38.58-38.87c5.62-2.34,7.13-9.72,2.53-13.71-5.25-4.55-9.67-11.12-9.23-20.22C146.14,189.87,137.68,185.85,132.19,190.18Z" transform="translate(-49.83)"/><path class="cls-4" d="M146.21,0h0a105.46,105.46,0,0,0,90.18,118.79h0A105.46,105.46,0,0,0,146.21,0Z" transform="translate(-49.83)"/><path class="cls-5" d="M224.52,98.89l-8.79-11.58L219.81,75a1.8,1.8,0,0,0-3.42-1.12l-3.3,10-7.16-9.43L210,62.08A1.8,1.8,0,0,0,206.58,61l-3.29,10-7.16-9.43,4.07-12.32A1.8,1.8,0,1,0,196.78,48l-3.3,10-7.16-9.43,4.08-12.32A1.8,1.8,0,1,0,187,35.13l-3.3,10-7.16-9.44,4.07-12.31a1.8,1.8,0,1,0-3.42-1.13l-3.29,10L162.26,16.89A2.57,2.57,0,0,0,158.17,20L170,35.64l-11.24.53a1.8,1.8,0,1,0,.17,3.59l13.71-.64,7.16,9.43-11.24.53a1.8,1.8,0,1,0,.17,3.6L182.48,52l7.16,9.43L178.4,62a1.8,1.8,0,0,0,.17,3.6l13.72-.65,7.16,9.44-11.24.53a1.8,1.8,0,1,0,.17,3.59l13.71-.64,7.16,9.43L198,87.82a1.8,1.8,0,0,0,.17,3.59l13.72-.64L220.43,102a2.57,2.57,0,1,0,4.09-3.12Z" transform="translate(-49.83)"/></svg>