<svg id="Capa_1" data-name="Capa 1" xmlns="http://www.w3.org/2000/svg" viewBox="0 0 291.59 468.02"><defs><style>.cls-1{fill:#3a556a;}.cls-2{fill:#e56353;}.cls-3{fill:#e1e6e9;}.cls-4{fill:#44c4a1;}.cls-5{fill:#31978c;}</style></defs><path class="cls-1" d="M239.42,142.4c-1.74-22.21,39.49-57.13,59.31-72.56a14.69,14.69,0,0,0,3.59-19.11h0a14.69,14.69,0,0,0-23.94-1.9c-16.1,19.6-45,55.9-48.31,93.57Z" transform="translate(-49.86)"/><path class="cls-2" d="M332.25,226.47c-6-5.69-11.33-10.86-14-18.95-4.51-13.85,6.59-21.13,15.14-29.66,4.89-4.88,9.86-11.48,7.35-18.73-2.8-8.07-11.44-12.91-19.11-15.31-4-1.26-4.27-5.85-2.22-8.31a81.79,81.79,0,0,0-35.78.37,216.34,216.34,0,0,1-99.05,0,81.93,81.93,0,0,0-18.74-2.17c-63.13,0-114.49,72.67-116,163.14a6.65,6.65,0,0,1,.61-.27c5.33-2,10.47-4.79,16-6.21,5.2-1.33,10.67-1.3,16-1.27,11.57.07,23.31,1.5,34,6.21,8.63,3.82,16.56,10.11,21.41,18.3a37.87,37.87,0,0,1,4.46,12.4c.57,3,.71,6.48,2,9.31,1.8,4,6.05,6.3,9.05,9.27a41,41,0,0,1,7.5,10.18c4,7.75,5.49,16.37,6.08,25,.31,4.55.3,8.83,2.14,13.09a62.39,62.39,0,0,0,6.16,10.21c4.95,7.2,8.93,14.1,10.17,22.87,1.18,8.35.92,16.85-2.16,24.78-2.49,6.44-6.4,12.05-10.77,17.31a84.88,84.88,0,0,0,30.22-8.35,70.77,70.77,0,0,1,62.87,0,85.86,85.86,0,0,0,24.78,7.73c-14.68-11.1-26-29.67-29.45-46.87-1.84-9.14-.11-17.88,4-26.13,4-7.9,9.7-14.92,12.56-23.36,3.15-9.29,1.67-18.79,2-28.38.35-9.92,3.12-17.81,10.39-24.69,6.68-6.32,7.5-13.8,10.21-22.19a38.2,38.2,0,0,1,17.76-21.26c7.18-4.14,16.42-7.46,17.76-16.7.56-3.9.33-7.83,2.06-11.49a14.89,14.89,0,0,1,1.93-3,19.19,19.19,0,0,0-.91-8.36C337.4,231.58,334.81,228.91,332.25,226.47Z" transform="translate(-49.86)"/><path class="cls-3" d="M139.87,171.33c-23.24,18.36-55.35,54.34-43.49,107.39,1.57,7,10.87,9,14.92,3.07,3.57-5.25,7.22-14.26,9.93-29.6a8.27,8.27,0,0,1,.37-1.38,71.85,71.85,0,0,1,38.58-38.87c5.62-2.34,7.13-9.72,2.53-13.71-5.25-4.55-9.67-11.11-9.23-20.22C153.82,171,145.36,167,139.87,171.33Z" transform="translate(-49.86)"/><path class="cls-4" d="M146.21,0h0a105.46,105.46,0,0,0,90.18,118.79h0A105.46,105.46,0,0,0,146.21,0Z" transform="translate(-49.86)"/><path class="cls-5" d="M224.52,98.89l-8.79-11.58L219.81,75a1.8,1.8,0,0,0-3.42-1.12l-3.3,10-7.16-9.43L210,62.08A1.8,1.8,0,0,0,206.58,61l-3.29,10-7.16-9.43,4.07-12.32A1.8,1.8,0,1,0,196.78,48l-3.3,10-7.16-9.43,4.08-12.32A1.8,1.8,0,1,0,187,35.13l-3.3,10-7.16-9.44,4.07-12.31a1.8,1.8,0,1,0-3.42-1.13l-3.29,10L162.26,16.89A2.57,2.57,0,0,0,158.17,20L170,35.64l-11.24.53a1.8,1.8,0,1,0,.17,3.59l13.71-.64,7.16,9.43-11.24.53a1.8,1.8,0,1,0,.17,3.6L182.48,52l7.16,9.43L178.4,62a1.8,1.8,0,0,0,.17,3.6l13.72-.65,7.16,9.44-11.24.53a1.8,1.8,0,1,0,.17,3.59l13.71-.64,7.16,9.43L198,87.82a1.8,1.8,0,0,0,.17,3.59l13.72-.64L220.43,102a2.57,2.57,0,1,0,4.09-3.12Z" transform="translate(-49.86)"/></svg>