<svg id="Capa_1" data-name="Capa 1" xmlns="http://www.w3.org/2000/svg" viewBox="0 0 196.23 468.02"><defs><style>.cls-1{fill:#3a556a;}.cls-2{fill:#e56353;}.cls-3{fill:#44c4a1;}.cls-4{fill:#31978c;}</style></defs><path class="cls-1" d="M239.42,142.4c-1.74-22.21,39.49-57.13,59.31-72.56a14.69,14.69,0,0,0,3.59-19.11h0a14.69,14.69,0,0,0-23.94-1.9c-16.1,19.6-45,55.9-48.31,93.57Z" transform="translate(-145.22)"/><path class="cls-2" d="M332.25,226.47c-6-5.69-11.33-10.86-14-18.95-4.51-13.85,6.59-21.13,15.14-29.66,4.89-4.88,9.86-11.48,7.35-18.73-2.8-8.07-11.44-12.91-19.11-15.31-4-1.26-4.27-5.85-2.22-8.31a81.79,81.79,0,0,0-35.78.37,216.19,216.19,0,0,1-96.56.55c10.42,10.32,17.16,25,14.61,39.78-1.13,6.53-4.66,12.13-7.18,18.15-3.18,7.59-1.46,12.95,2.76,19.76,4.06,6.57,6.3,12.59,5.78,20.44-.26,4-.91,8-.72,12,.22,4.69,2.13,9.05,2.85,13.66,2.81,17.86-4.78,36.46-14.19,51.32-4.5,7.09-9.88,14-16.55,19.18s-14.71,7.81-22.23,11.47a5.49,5.49,0,0,1-1.11.4c.78.65,1.54,1.3,2.24,2a41,41,0,0,1,7.5,10.18c4,7.75,5.49,16.37,6.08,25,.31,4.55.3,8.83,2.14,13.09a62.39,62.39,0,0,0,6.16,10.21c4.95,7.2,8.93,14.1,10.17,22.87,1.18,8.35.92,16.85-2.16,24.78-2.49,6.44-6.4,12.05-10.77,17.31a84.88,84.88,0,0,0,30.22-8.35,70.77,70.77,0,0,1,62.87,0,85.86,85.86,0,0,0,24.78,7.73c-14.68-11.1-26-29.67-29.45-46.87-1.84-9.14-.11-17.88,4-26.13,4-7.9,9.7-14.92,12.56-23.36,3.15-9.29,1.67-18.79,2-28.38.35-9.92,3.12-17.81,10.39-24.69,6.68-6.32,7.5-13.8,10.21-22.19a38.2,38.2,0,0,1,17.76-21.26c7.18-4.14,16.42-7.46,17.76-16.7.56-3.9.33-7.83,2.06-11.49a14.89,14.89,0,0,1,1.93-3,19.19,19.19,0,0,0-.91-8.36C337.4,231.58,334.81,228.91,332.25,226.47Z" transform="translate(-145.22)"/><path class="cls-3" d="M146.21,0h0a105.46,105.46,0,0,0,90.18,118.79h0A105.46,105.46,0,0,0,146.21,0Z" transform="translate(-145.22)"/><path class="cls-4" d="M224.52,98.89l-8.79-11.58L219.81,75a1.8,1.8,0,0,0-3.42-1.12l-3.3,10-7.16-9.43L210,62.08A1.8,1.8,0,0,0,206.58,61l-3.29,10-7.16-9.43,4.07-12.32A1.8,1.8,0,1,0,196.78,48l-3.3,10-7.16-9.43,4.08-12.32A1.8,1.8,0,1,0,187,35.13l-3.3,10-7.16-9.44,4.07-12.31a1.8,1.8,0,1,0-3.42-1.13l-3.29,10L162.26,16.89A2.57,2.57,0,0,0,158.17,20L170,35.64l-11.24.53a1.8,1.8,0,1,0,.17,3.59l13.71-.64,7.16,9.43-11.24.53a1.8,1.8,0,1,0,.17,3.6L182.48,52l7.16,9.43L178.4,62a1.8,1.8,0,0,0,.17,3.6l13.72-.65,7.16,9.44-11.24.53a1.8,1.8,0,1,0,.17,3.59l13.71-.64,7.16,9.43L198,87.82a1.8,1.8,0,0,0,.17,3.59l13.72-.64L220.43,102a2.57,2.57,0,1,0,4.09-3.12Z" transform="translate(-145.22)"/></svg>